<svg width="173" height="22" viewBox="0 0 173 22" fill="none" xmlns="http://www.w3.org/2000/svg">
<path d="M12.7838 0.222168V5.66826H10.6409C7.93398 5.66826 5.75293 7.81713 5.75293 10.4849C5.75293 13.1516 7.93398 15.3005 10.6399 15.3005H12.7838V20.7466C17.6708 19.8204 21.3189 15.5971 21.3189 10.4839C21.3189 5.40882 17.6718 1.18549 12.7838 0.222168Z" fill="#003791"/>
<path d="M10.6408 17.0039C6.99364 17.0039 4.02222 14.0778 4.02222 10.4849C4.02222 6.89208 6.99264 3.96491 10.6388 3.96491H11.0531V0H10.6398C4.77539 0 0 4.70499 0 10.4839C0 16.3011 4.77538 21.0061 10.6408 21.0061H11.0541V17.006H10.6408V17.0039Z" fill="#FC5055"/>
<path d="M36.3579 14.1521C35.4963 14.8491 34.4212 15.2283 33.313 15.226C30.6433 15.226 28.5004 13.1144 28.5004 10.4838C28.5004 7.85431 30.6423 5.74264 33.313 5.74264C34.475 5.73766 35.5985 6.15914 36.4705 6.92719L38.1628 5.26098C36.8321 4.063 35.1036 3.40248 33.313 3.40775C29.327 3.40775 26.1313 6.59435 26.1313 10.4838C26.1313 14.3743 29.327 17.5971 33.313 17.5971C35.1552 17.5971 36.8094 16.9305 38.0502 15.8193L36.3579 14.1521ZM112.873 3.96382L107.571 10.2616L102.232 3.96382L102.195 4.03823V3.96382H100.051V17.0049H102.195V7.44606L107.571 13.7438L112.873 7.59488V17.0049H114.978V3.96382H112.873ZM54.1049 10.4838C54.1049 14.4115 50.871 17.5599 46.9232 17.5599C42.9382 17.5599 39.7426 14.3743 39.7426 10.4838C39.7426 6.59435 42.9754 3.40775 46.9232 3.40775C50.871 3.40775 54.1049 6.59435 54.1049 10.4838ZM51.6986 10.4838C51.6986 7.85431 49.5558 5.74264 46.886 5.74264C44.2163 5.74264 42.0734 7.85431 42.0734 10.4838C42.0734 13.1144 44.2163 15.226 46.886 15.226C49.5558 15.226 51.6986 13.1144 51.6986 10.4838ZM97.8708 10.4838C97.8708 14.4115 94.6369 17.5599 90.6891 17.5599C86.703 17.5599 83.5074 14.3743 83.5074 10.4838C83.5074 6.59435 86.7413 3.40775 90.6891 3.40775C94.6741 3.40775 97.8708 6.59435 97.8708 10.4838ZM95.5017 10.4838C95.5017 7.85431 93.3588 5.74264 90.6891 5.74264C88.0193 5.74264 85.8765 7.85431 85.8765 10.4838C85.8765 13.1144 88.0193 15.226 90.6891 15.226C93.3206 15.226 95.5017 13.1144 95.5017 10.4838ZM83.4702 3.96382H80.5742L75.1231 9.44711H72.9048V3.96382H70.7992V17.0049H72.9048V11.5588H75.0848L80.537 17.0049H83.3948L76.928 10.521L83.4702 3.96382Z" fill="#003791"/>
<path d="M172.654 3.96387H169.798L164.308 9.44717H162.089V3.96387H159.984V17.0049H162.089V11.5588H164.308L169.722 17.0049H172.579L166.15 10.5211L172.654 3.96387ZM141.522 17.0039H143.855L138.025 3.96387H135.619L129.792 17.0049H132.123L133.401 14.1894H140.245L141.522 17.0049V17.0039ZM134.342 12.1139L136.823 6.63161L139.305 12.1139H134.341H134.342Z" fill="#003791"/>
<path d="M68.0921 13.226C68.0921 12.7106 67.9852 12.2007 67.778 11.7287C67.5708 11.2567 67.2679 10.8328 66.8884 10.4839C67.6024 9.78001 68.0921 8.81668 68.0921 7.74275C68.0889 6.7382 67.6871 5.77599 66.975 5.06746C66.2629 4.35892 65.2987 3.962 64.2941 3.96387H56.5493V17.0411H64.2941C66.3997 17.0049 68.0921 15.3005 68.0921 13.226ZM58.6922 6.07655H64.2569C65.1971 6.07655 65.9482 6.81663 65.9482 7.74275C65.9482 8.66887 65.1971 9.40996 64.2569 9.40996H58.6922V6.07554V6.07655ZM64.2569 14.9295H58.6922V11.5588H64.2941C65.2343 11.5588 65.9865 12.3361 65.9865 13.226C65.9482 14.1512 65.1971 14.9295 64.2569 14.9295Z" fill="#003791"/>
<path d="M155.208 4.00107V9.44716H147.501V4.00107H145.358V16.9677H147.501V11.5578H155.208V16.9677H157.352V4.00107H155.208ZM129.04 13.226C129.04 11.1506 127.31 9.44716 125.205 9.44716H119.64V6.07553H127.762V3.96387H117.497V17.0411H125.205C127.31 17.0049 129.04 15.3005 129.04 13.226ZM125.205 14.9295H119.64V11.5588H125.205C126.145 11.5588 126.897 12.3361 126.897 13.226C126.897 14.1512 126.145 14.9295 125.205 14.9295Z" fill="#003791"/>
</svg>
