<svg width="20" height="21" viewBox="0 0 20 21" fill="none" xmlns="http://www.w3.org/2000/svg">
<path d="M4.99935 5.49984L6.66602 3.83317M6.66602 3.83317L4.99935 2.1665M6.66602 3.83317H4.99935C3.1584 3.83317 1.66602 5.32555 1.66602 7.1665M14.9993 15.4998L13.3327 17.1665M13.3327 17.1665L14.9993 18.8332M13.3327 17.1665H14.9993C16.8403 17.1665 18.3327 15.6741 18.3327 13.8332M8.4902 5.9165C9.04526 3.75997 11.0029 2.1665 13.3327 2.1665C16.0941 2.1665 18.3327 4.40508 18.3327 7.1665C18.3327 9.49629 16.7392 11.4539 14.5827 12.009M11.666 13.8332C11.666 16.5946 9.42744 18.8332 6.66602 18.8332C3.90459 18.8332 1.66602 16.5946 1.66602 13.8332C1.66602 11.0717 3.90459 8.83317 6.66602 8.83317C9.42744 8.83317 11.666 11.0717 11.666 13.8332Z" stroke="#003791" stroke-linecap="round" stroke-linejoin="round"/>
</svg>
