<svg width="20" height="21" viewBox="0 0 20 21" fill="none" xmlns="http://www.w3.org/2000/svg">
<path d="M15.8327 17.9998V12.9998M13.3327 15.4998H18.3327M18.3327 8.83317H1.66602M18.3327 10.4998V7.33317C18.3327 6.39975 18.3327 5.93304 18.151 5.57652C17.9912 5.26292 17.7363 5.00795 17.4227 4.84816C17.0661 4.6665 16.5994 4.6665 15.666 4.6665H4.33268C3.39926 4.6665 2.93255 4.6665 2.57603 4.84816C2.26243 5.00795 2.00746 5.26292 1.84767 5.57652C1.66602 5.93304 1.66602 6.39975 1.66602 7.33317V13.6665C1.66602 14.5999 1.66602 15.0666 1.84767 15.4232C2.00746 15.7368 2.26243 15.9917 2.57603 16.1515C2.93255 16.3332 3.39926 16.3332 4.33268 16.3332H9.99935" stroke="#003791" stroke-linecap="round" stroke-linejoin="round"/>
</svg>
