<svg width="20" height="21" viewBox="0 0 20 21" fill="none" xmlns="http://www.w3.org/2000/svg">
<path d="M9.99955 13C7.35782 13 5.00855 14.2755 3.51288 16.255C3.19097 16.681 3.03002 16.894 3.03528 17.1819C3.03935 17.4043 3.17902 17.6849 3.35402 17.8222C3.58054 18 3.89444 18 4.52224 18H15.4769C16.1047 18 16.4186 18 16.6451 17.8222C16.8201 17.6849 16.9598 17.4043 16.9638 17.1819C16.9691 16.894 16.8081 16.681 16.4862 16.255C14.9906 14.2755 12.6413 13 9.99955 13Z" stroke="#003791" stroke-linecap="round" stroke-linejoin="round"/>
<path d="M9.99955 10.5C12.0706 10.5 13.7496 8.82107 13.7496 6.75C13.7496 4.67893 12.0706 3 9.99955 3C7.92848 3 6.24955 4.67893 6.24955 6.75C6.24955 8.82107 7.92848 10.5 9.99955 10.5Z" stroke="#003791" stroke-linecap="round" stroke-linejoin="round"/>
</svg>
