<svg width="20" height="21" viewBox="0 0 20 21" fill="none" xmlns="http://www.w3.org/2000/svg">
<path d="M13.75 12.1667H13.7583M2.5 4.66667V16.3333C2.5 17.2538 3.24619 18 4.16667 18H15.8333C16.7538 18 17.5 17.2538 17.5 16.3333V8C17.5 7.07953 16.7538 6.33333 15.8333 6.33333L4.16667 6.33333C3.24619 6.33333 2.5 5.58714 2.5 4.66667ZM2.5 4.66667C2.5 3.74619 3.24619 3 4.16667 3H14.1667M14.1667 12.1667C14.1667 12.3968 13.9801 12.5833 13.75 12.5833C13.5199 12.5833 13.3333 12.3968 13.3333 12.1667C13.3333 11.9365 13.5199 11.75 13.75 11.75C13.9801 11.75 14.1667 11.9365 14.1667 12.1667Z" stroke="#003791" stroke-linecap="round" stroke-linejoin="round"/>
</svg>
